<?xml version="1.0" encoding="UTF-8" standalone="no"?>
<!-- Created with Inkscape (http://www.inkscape.org/) -->

<svg
   width="168.636mm"
   height="34.922001mm"
   viewBox="0 0 168.636 34.922001"
   version="1.1"
   id="svg1"
   inkscape:version="1.2.2 (b0a8486541, 2022-12-01)"
   sodipodi:docname="title.svg"
   inkscape:export-filename="title.png"
   inkscape:export-xdpi="100"
   inkscape:export-ydpi="100"
   xmlns:inkscape="http://www.inkscape.org/namespaces/inkscape"
   xmlns:sodipodi="http://sodipodi.sourceforge.net/DTD/sodipodi-0.dtd"
   xmlns:xlink="http://www.w3.org/1999/xlink"
   xmlns="http://www.w3.org/2000/svg"
   xmlns:svg="http://www.w3.org/2000/svg">
  <sodipodi:namedview
     id="namedview1"
     pagecolor="#ffffff"
     bordercolor="#000000"
     borderopacity="0.25"
     inkscape:showpageshadow="2"
     inkscape:pageopacity="0.0"
     inkscape:pagecheckerboard="0"
     inkscape:deskcolor="#d1d1d1"
     inkscape:document-units="mm"
     inkscape:zoom="0.75097265"
     inkscape:cx="226.37309"
     inkscape:cy="-143.14769"
     inkscape:window-width="1920"
     inkscape:window-height="1011"
     inkscape:window-x="311"
     inkscape:window-y="1472"
     inkscape:window-maximized="1"
     inkscape:current-layer="layer1"
     showgrid="false" />
  <defs
     id="defs1">
    <rect
       x="104.64167"
       y="63.13092"
       width="213.60738"
       height="144.42281"
       id="rect2" />
    <linearGradient
       id="linearGradient1"
       inkscape:collect="always">
      <stop
         style="stop-color:#ff6b00;stop-opacity:1;"
         offset="0"
         id="stop1" />
      <stop
         style="stop-color:#d50068;stop-opacity:1;"
         offset="1"
         id="stop2" />
    </linearGradient>
    <linearGradient
       inkscape:collect="always"
       xlink:href="#linearGradient1"
       id="linearGradient2"
       x1="26.313559"
       y1="15.389831"
       x2="66.474579"
       y2="56.347458"
       gradientUnits="userSpaceOnUse"
       gradientTransform="translate(-11.869,-11.898)" />
    <rect
       x="104.64167"
       y="63.13092"
       width="217.06659"
       height="175.55585"
       id="rect2-6" />
    <filter
       style="color-interpolation-filters:sRGB"
       inkscape:label="Drop Shadow"
       id="filter78"
       x="-0.084600155"
       y="-0.17425165"
       width="1.218681"
       height="1.3966881">
      <feFlood
         result="flood"
         in="SourceGraphic"
         flood-opacity="0.498039"
         flood-color="rgb(255,255,255)"
         id="feFlood77" />
      <feGaussianBlur
         result="blur"
         in="SourceGraphic"
         stdDeviation="1.781 3.767"
         id="feGaussianBlur77" />
      <feOffset
         result="offset"
         in="blur"
         dx="2.500000"
         dy="2.500000"
         id="feOffset77" />
      <feComposite
         result="comp1"
         operator="out"
         in="flood"
         in2="offset"
         id="feComposite77" />
      <feComposite
         result="comp2"
         operator="atop"
         in="comp1"
         in2="SourceGraphic"
         id="feComposite78" />
    </filter>
  </defs>
  <g
     inkscape:label="Calque 1"
     inkscape:groupmode="layer"
     id="layer1"
     transform="translate(5.1709752,4.9992154)">
    <rect
       style="fill:url(#linearGradient2);stroke:none;stroke-width:0.1;stroke-linecap:round;stroke-linejoin:round;filter:url(#filter78)"
       id="rect1"
       width="50.524731"
       height="51.883583"
       x="8.9648237"
       y="-2.1930015"
       rx="1.5044676"
       ry="7.5606875"
       transform="matrix(3.3234348,0,0,0.66131553,-34.661292,-3.1511282)" />
    <text
       xml:space="preserve"
       transform="matrix(0.26458333,0,0,0.26458333,10.090093,-13.758322)"
       id="text2"
       style="font-size:53.3333px;font-family:Noteworthy;-inkscape-font-specification:Noteworthy;text-align:end;white-space:pre;shape-inside:url(#rect2);shape-padding:17.2961;display:inline;fill:#000000;fill-opacity:1;stroke-width:0.377953;stroke-linecap:round;stroke-linejoin:round"
       x="-43.398491"
       y="0"><tspan
         x="163.34638"
         y="128.95438"
         id="tspan2012"><tspan
           style="font-family:'Clear Sans Thin';-inkscape-font-specification:'Clear Sans Thin, ';text-align:center;text-anchor:middle;fill:#ffffff"
           id="tspan2010">mini</tspan></tspan></text>
    <text
       xml:space="preserve"
       transform="matrix(0.26458333,0,0,0.26458333,38.55079,-15.60085)"
       id="text2-4"
       style="font-size:80px;font-family:Noteworthy;-inkscape-font-specification:Noteworthy;text-align:end;white-space:pre;shape-inside:url(#rect2-6);shape-padding:0.557688;display:inline;fill:#000000;fill-opacity:1;stroke-width:0.377953;stroke-linecap:round;stroke-linejoin:round"
       x="-17.988304"
       y="0"><tspan
         x="152.99902"
         y="136.47947"
         id="tspan2016"><tspan
           style="font-family:'Clear Sans Thin';-inkscape-font-specification:'Clear Sans Thin, ';text-align:center;text-anchor:middle;fill:#ffffff"
           id="tspan2014">PIC</tspan></tspan></text>
    <g
       id="g1038"
       transform="matrix(1.044574,-0.22524668,0.22816761,1.048756,70.889219,-2.9652688)"
       style="stroke:#000093;stroke-width:0.933765;stroke-opacity:1">
      <path
         style="fill:none;stroke:#000093;stroke-width:1.86753;stroke-linecap:round;stroke-linejoin:round;stroke-opacity:1;-inkscape-stroke:none;stop-color:#000000"
         d="m -35.334888,9.3758956 c 0.757139,-1.4191445 1.105756,-3.5148897 2.610432,-4.0040444 1.647028,-0.5354317 1.169449,4.7859598 1.309877,5.5035478 0.31673,-1.2775846 0.350364,-5.1799765 1.45554,-5.8615686 1.308946,-0.807263 1.862284,3.5705853 1.932402,4.7333005 0.04804,0.7966431 -0.517912,1.7779231 -0.38203,0.4479421 0.139803,-1.3683543 0.425326,-5.3047649 1.739621,-5.5172622 1.269817,-0.2053059 1.159427,1.7588589 1.173548,2.774663 0.0083,0.5970294 0.07373,1.7906137 0.70951,2.5222543 0.744468,0.8567159 1.91223,0.7629069 2.68882,0.00954 0.498839,-0.4839193 0.537004,-1.0611884 0.507332,-1.6866733"
         id="path1028"
         sodipodi:nodetypes="cscsssssssc" />
      <path
         style="fill:none;stroke:#000093;stroke-width:1.86753;stroke-linecap:round;stroke-linejoin:round;stroke-opacity:1;-inkscape-stroke:none;stop-color:#000000"
         d="m -21.685449,4.7697075 c 0.06717,1.7605848 -0.220119,3.9394566 0.9896,5.3694585 1.259721,1.48911 2.387182,-1.129628 2.708979,-2.5692543 0.308104,-1.3783701 1.331322,-3.9875018 2.655724,-1.5102575 0.502819,0.9405042 0.743678,4.1152098 0.405266,4.5840078 -0.06531,-1.3409522 0.356694,-4.996899 1.510153,-5.531048 1.226901,-0.568159 1.433309,2.6413163 1.587432,3.7335537 0.192556,1.3645983 2.0612453,2.3807153 3.4534512,1.142862 0.2780311,-0.5031187 0.3846495,-1.1254411 0.4513567,-1.7387151"
         id="path1030"
         sodipodi:nodetypes="cssscsscc" />
      <path
         style="fill:none;stroke:#000093;stroke-width:1.86753;stroke-linecap:round;stroke-linejoin:round;stroke-opacity:1;-inkscape-stroke:none;stop-color:#000000"
         d="m -7.8360741,4.5789058 c -0.034121,1.9772631 -0.475983,3.8449054 0.5878211,5.4594942 1.027679,1.349222 2.5850054,0.242184 3.0852085,-0.6252191"
         id="path1032"
         sodipodi:nodetypes="ccc" />
      <path
         style="fill:none;stroke:#000093;stroke-width:1.86753;stroke-linecap:round;stroke-linejoin:round;stroke-opacity:1;-inkscape-stroke:none;stop-color:#000000"
         d="m -21.194242,-0.20768281 c -0.09783,0.39496065 -0.195665,0.78992129 -0.293497,1.18488181"
         id="path1034" />
      <path
         style="fill:none;stroke:#000093;stroke-width:1.86753;stroke-linecap:round;stroke-linejoin:round;stroke-opacity:1;-inkscape-stroke:none;stop-color:#000000"
         d="m -7.4404693,-0.3046648 c 0.017197,0.16347478 0.025705,0.73875292 -0.098121,0.94397992"
         id="path1036"
         sodipodi:nodetypes="cc" />
    </g>
  </g>
</svg>
